<svg width="24" height="24" viewBox="0 0 24 24" fill="none" xmlns="http://www.w3.org/2000/svg">
<path d="M10.9 4C11.5075 4 12 4.49249 12 5.1L12 19.9C12 20.5075 11.5075 21 10.9 21L5.1 21C4.49249 21 4 20.5075 4 19.9L4 5.1C4 4.49249 4.49249 4 5.1 4L10.9 4Z" stroke="black" stroke-width="2"/>
<path d="M10 21L18.9 21C19.5075 21 20 20.5075 20 19.9L20 13.1C20 12.4925 19.5075 12 18.9 12L10 12" stroke="black" stroke-width="2"/>
<path d="M11 20L11 21L12 21L12 20L11 20ZM5 19L4 19L4 21L5 21L5 19ZM10 5L10 20L12 20L12 5L10 5ZM11 19L5 19L5 21L11 21L11 19Z" fill="black"/>
<path d="M19 20L19 21L20 21L20 20L19 20ZM14 19L13 19L13 21L14 21L14 19ZM18 13L18 20L20 20L20 13L18 13ZM19 19L14 19L14 21L19 21L19 19Z" fill="black"/>
</svg>
